<?xml version="1.0" encoding="UTF-8"?>
<svg id="Layer_2" data-name="Layer 2" xmlns="http://www.w3.org/2000/svg" viewBox="0 0 600 126.25">
  <defs>
    <style>
      .cls-1 {
        fill: #e3c767;
      }

      .cls-2 {
        fill: #9b3621;
      }
    </style>
  </defs>
  <g id="Layer_1-2" data-name="Layer 1">
    <g>
      <g>
        <path class="cls-1" d="M435.68,113h3.7c1.16,0,2.11-.95,2.11-2.11v-27.17c0-.56-.23-1.1-.62-1.49l-4.32-4.32c-.4-.4-.93-.62-1.49-.62h-48.5c-.56,0-1.09.22-1.49.62l-4.32,4.32c-.39.39-.62.94-.62,1.49v27.17c0,1.17.95,2.11,2.11,2.11h3.69c1.16,0,2.11-.95,2.11-2.11v-5.58c0-1.89,1.54-3.43,3.43-3.43h38.66c1.89,0,3.43,1.54,3.43,3.43v5.58c0,1.17.95,2.11,2.11,2.11ZM430.14,94.31h-38.66c-1.89,0-3.43-1.54-3.43-3.43v-5.17l.85-.85h43.83l.85.85v5.17c0,1.89-1.54,3.43-3.43,3.43Z"/>
        <path class="cls-1" d="M363,77.91c-.39-.39-.94-.62-1.49-.62h-52.12c-1.16,0-2.11.95-2.11,2.11v31.49c0,1.17.95,2.11,2.11,2.11h52.81c.56,0,1.1-.23,1.49-.62l4.32-4.32c.4-.4.62-.93.62-1.49v-9.85c0-.56-.23-1.11-.63-1.51l-1.85-1.82,1.79-1.79v-7.9c0-.56-.23-1.1-.62-1.49l-4.32-4.32ZM318.62,83.94h40.59l.81.73v5.28l-.85.85h-40.55c-1.89,0-3.43-1.54-3.43-3.43s1.54-3.43,3.43-3.43ZM360.72,104.7l-.81.73h-41.28c-1.89,0-3.43-1.54-3.43-3.43v-1.06c0-1.89,1.54-3.43,3.43-3.43h41.24l.85.85v6.33Z"/>
        <path class="cls-1" d="M289.98,113h3.69c1.16,0,2.11-.95,2.11-2.11v-31.49c0-1.17-.95-2.11-2.11-2.11h-4.31c-.46,0-.92.16-1.29.44l-25.94,19.99c-1.23.95-2.95.95-4.19,0l-25.94-19.99c-.37-.28-.83-.44-1.29-.44h-4.31c-1.16,0-2.11.95-2.11,2.11v31.49c0,1.17.95,2.11,2.11,2.11h3.69c1.16,0,2.11-.95,2.11-2.11v-15.06c0-1.32.73-2.5,1.92-3.08,1.18-.59,2.56-.45,3.6.36l21.02,16.19c.76.59,1.82.59,2.58,0l21.02-16.19c.61-.47,1.35-.72,2.09-.72.52,0,1.03.12,1.52.36,1.18.58,1.91,1.76,1.91,3.08v15.06c0,1.17.95,2.11,2.11,2.11Z"/>
        <path class="cls-1" d="M483.05,113h3.7c1.16,0,2.11-.95,2.11-2.11v-22.6c0-1.89,1.54-3.43,3.43-3.43h24.86c1.16,0,2.11-.95,2.11-2.11v-3.35c0-1.17-.95-2.11-2.11-2.11h-64.49c-1.16,0-2.11.95-2.11,2.11v3.35c0,1.17.95,2.11,2.11,2.11h24.86c1.89,0,3.43,1.54,3.43,3.43v22.6c0,1.17.95,2.11,2.11,2.11Z"/>
        <path class="cls-1" d="M136.41,77.91c-.4-.4-.93-.62-1.49-.62h-47.8c-.56,0-1.09.22-1.49.62l-4.32,4.32c-.39.39-.62.94-.62,1.49v22.85c0,.57.22,1.1.62,1.49l4.32,4.32c.39.39.94.62,1.49.62h47.8c.56,0,1.09-.22,1.49-.62l3.93-3.93c.82-.82.82-2.16,0-2.99l-2.45-2.45c-.82-.83-2.16-.82-2.99,0l-1.41,1.41c-.65.65-1.51,1.01-2.42,1.01h-41.61l-.85-.85v-18.88l.85-.85h41.61c.91,0,1.78.36,2.42,1.01l1.41,1.41c.82.82,2.16.83,2.99,0l2.45-2.45c.4-.4.62-.93.62-1.49s-.22-1.09-.62-1.49l-3.93-3.93Z"/>
        <path class="cls-1" d="M207.87,77.91c-.4-.4-.93-.62-1.49-.62h-48.5c-.56,0-1.09.22-1.49.62l-4.32,4.32c-.39.39-.62.94-.62,1.49v22.85c0,.57.22,1.1.62,1.49l4.32,4.32c.39.39.94.62,1.49.62h48.5c.55,0,1.1-.23,1.49-.62l4.32-4.32c.4-.4.62-.93.62-1.49v-22.85c0-.56-.23-1.1-.62-1.49l-4.32-4.32ZM204.89,104.59l-.85.85h-43.83l-.85-.85v-18.88l.85-.85h43.83l.85.85v18.88Z"/>
      </g>
      <g>
        <path class="cls-2" d="M599.46,56.95l-25.46-53.76c-.92-1.95-2.89-3.2-5.05-3.2h-42.38c-2.16,0-4.13,1.24-5.05,3.2l-25.46,53.76c-1.76,3.71.95,7.98,5.05,7.98h20.4c.95,0,1.81-.58,2.16-1.46l.32-.81c1.69-3.84,5.36-6.37,9.49-6.68h28.54c4.13.31,7.8,2.85,9.49,6.68l.32.81c.35.88,1.21,1.46,2.16,1.46h20.4c4.1,0,6.8-4.27,5.05-7.98ZM555.05,37.66c-1.6,2.48-4.33,3.96-7.28,3.97-1.63,0-3.19-.44-4.53-1.25-1.08-.66-2.03-1.55-2.75-2.65-1.62-2.45-1.9-5.53-.74-8.23,1.38-3.23,4.42-5.24,7.93-5.27,3.51-.02,6.58,1.95,8.01,5.16,1.2,2.7.96,5.79-.65,8.26Z"/>
        <path class="cls-2" d="M481.27,0h-32.94c-2.01,0-3.86,1.1-4.83,2.86l-9.96,18.25c-1.9,3.58-5.49,5.82-9.6,5.98-4.1-.16-7.69-2.4-9.6-5.98l-9.96-18.25c-.96-1.77-2.82-2.86-4.83-2.86h-32.94c-3.04,0-5.5,2.46-5.5,5.5v54.17c0,3.04,2.46,5.5,5.5,5.5h16.47c3.04,0,5.5-2.47,5.5-5.51v-2.47c0-15.91,16.9-15.91,21.24-5.92l5.74,10.92c.96,1.82,2.86,2.96,4.92,2.94h6.89c2.06.02,3.96-1.12,4.92-2.94l5.74-10.92c4.34-10,21.25-10,21.25,5.92v2.47c0,3.04,2.46,5.51,5.5,5.51h16.47c3.04,0,5.5-2.46,5.5-5.5V5.5c0-3.04-2.46-5.5-5.5-5.5Z"/>
        <path class="cls-2" d="M347.26,0h-32.94c-2.01,0-3.86,1.1-4.83,2.86l-9.96,18.25c-1.9,3.58-5.49,5.82-9.6,5.98-4.1-.16-7.69-2.4-9.6-5.98l-9.96-18.25c-.96-1.77-2.82-2.86-4.83-2.86h-32.94c-3.04,0-5.5,2.46-5.5,5.5v54.17c0,3.04,2.46,5.5,5.5,5.5h16.47c3.04,0,5.5-2.47,5.5-5.51v-2.47c0-15.91,16.9-15.91,21.24-5.92l5.74,10.92c.96,1.82,2.86,2.96,4.92,2.94h6.89c2.06.02,3.96-1.12,4.92-2.94l5.74-10.92c4.34-10,21.25-10,21.25,5.92v2.47c0,3.04,2.46,5.51,5.5,5.51h16.47c3.04,0,5.5-2.46,5.5-5.5V5.5c0-3.04-2.46-5.5-5.5-5.5Z"/>
        <path class="cls-2" d="M218.83,56.95L193.37,3.2c-.92-1.95-2.89-3.2-5.05-3.2h-42.39c-2.16,0-4.13,1.24-5.05,3.2l-10.04,21.2h43.54c3.68,0,6.66,2.98,6.66,6.66s-2.98,6.66-6.66,6.66h-49.84l-9.11,19.24c-1.76,3.71.95,7.98,5.05,7.98h20.4c.95,0,1.81-.58,2.16-1.46l.32-.81c1.69-3.84,5.36-6.37,9.49-6.68h28.54c4.13.31,7.8,2.85,9.49,6.68l.32.81c.35.88,1.21,1.46,2.16,1.46h20.4c4.1,0,6.8-4.27,5.05-7.98Z"/>
        <g>
          <path class="cls-2" d="M107.14,24.4l-.06-19.01c0-2.98-2.43-5.39-5.4-5.39h-22.44c-2.98,0-5.4,2.42-5.4,5.4v9.61c0,2.41-.67,4.57-2.88,5.51-2.21.94-5.51.49-7.24-1.18L37.21.96c-.9-.63-1.98-.96-3.08-.96H5.41C2.42,0,0,2.43,0,5.42l.06,18.98h107.08Z"/>
          <path class="cls-2" d="M.11,37.71l.07,21.9c0,2.98,2.43,5.39,5.4,5.39h22.46c2.99,0,5.41-2.43,5.4-5.42l-.02-9.45c-.02-6.43,7.5-10.14,12.44-6.01.06.05,23.53,15.92,29.5,19.95.89.6,1.94.92,3.02.92h23.46c2.99,0,5.41-2.43,5.4-5.42l-.07-21.86H.11Z"/>
        </g>
      </g>
      <path class="cls-1" d="M174.38,28.39H.11v5.33h174.27c1.47,0,2.66-1.19,2.66-2.66s-1.19-2.66-2.66-2.66Z"/>
      <g>
        <g>
          <path class="cls-1" d="M66.47,75.43H0v5.27h66.47c1.43,0,2.59-1.18,2.59-2.63s-1.16-2.63-2.59-2.63Z"/>
          <path class="cls-1" d="M66.47,86.82H0v5.27h66.47c1.43,0,2.59-1.18,2.59-2.63s-1.16-2.63-2.59-2.63Z"/>
          <path class="cls-1" d="M66.47,98.21H0v5.27h66.47c1.43,0,2.59-1.18,2.59-2.63s-1.16-2.63-2.59-2.63Z"/>
          <path class="cls-1" d="M66.47,109.59H0v5.27h66.47c1.43,0,2.59-1.18,2.59-2.63s-1.16-2.63-2.59-2.63Z"/>
        </g>
        <g>
          <path class="cls-1" d="M533.47,114.86h66.47v-5.27s-66.47,0-66.47,0c-1.43,0-2.59,1.18-2.59,2.63s1.16,2.63,2.59,2.63Z"/>
          <path class="cls-1" d="M533.47,103.48h66.47v-5.27h-66.47c-1.43,0-2.59,1.18-2.59,2.63s1.16,2.63,2.59,2.63Z"/>
          <path class="cls-1" d="M533.47,92.09h66.47v-5.27h-66.47c-1.43,0-2.59,1.18-2.59,2.63s1.16,2.63,2.59,2.63Z"/>
          <path class="cls-1" d="M533.47,80.7h66.47s0-5.27,0-5.27h-66.47c-1.43,0-2.59,1.18-2.59,2.63s1.16,2.63,2.59,2.63Z"/>
        </g>
      </g>
      <rect class="cls-1" y="120.98" width="599.94" height="5.27"/>
    </g>
  </g>
</svg>